<svg width="26" height="24" viewBox="0 0 26 24" fill="none" xmlns="http://www.w3.org/2000/svg">
<path d="M5.70066 24V7.80725H0.318521V24H5.70066ZM3.01029 5.59507C4.88714 5.59507 6.05538 4.35166 6.05538 2.7978C6.02042 1.2089 4.88721 0 3.0459 0C1.20489 0 0.000976562 1.20893 0.000976562 2.7978C0.000976562 4.35173 1.16894 5.59507 2.97515 5.59507H3.01012H3.01029ZM8.67966 24H14.0618V14.9572C14.0618 14.4732 14.0968 13.9898 14.2389 13.6438C14.628 12.6769 15.5136 11.6754 17.0003 11.6754C18.9479 11.6754 19.7271 13.1603 19.7271 15.3371V23.9999H25.1089V14.7151C25.1089 9.74134 22.4536 7.42709 18.9125 7.42709C16.009 7.42709 14.7342 9.05002 14.026 10.1554H14.0619V7.80691H8.67978C8.75042 9.32635 8.67978 23.9997 8.67978 23.9997L8.67966 24Z" fill="#005C4D"/>
</svg>
